<?xml version="1.0" encoding="UTF-8" standalone="no"?>
<!-- Generator: Adobe Illustrator 24.3.0, SVG Export Plug-In . SVG Version: 6.00 Build 0)  -->

<svg
   version="1.0"
   id="katman_1"
   x="0px"
   y="0px"
   viewBox="0 0 683.99999 267.99997"
   xml:space="preserve"
   width="684"
   height="268"
   xmlns="http://www.w3.org/2000/svg"
   xmlns:svg="http://www.w3.org/2000/svg"><defs
   id="defs1" />
<style
   type="text/css"
   id="style1">
	.st0{fill:#010202;}
</style>

<path
   style="opacity:1;fill:#fc573b;fill-opacity:1;stroke:#fc573b;stroke-width:0.732202"
   d="m 129.2758,256.63671 c -2.92315,-4.76668 -4.19368,-6.22371 -5.42703,-6.22371 -1.02123,0 -3.471,1.87501 -6.69649,5.12541 -7.11542,7.17036 -7.66924,7.02532 -11.58206,-3.03353 -2.9783,-7.65645 -4.00802,-7.98749 -10.389548,-3.34016 -6.74489,4.91193 -7.55626,5.25055 -9.14211,3.81538 -0.81292,-0.73569 -1.65783,-3.12839 -2.15367,-6.09902 -1.92198,-11.51481 -1.83204,-11.45523 -10.98293,-7.27545 -8.9382,4.08264 -9.1346,3.95269 -9.40752,-6.22461 -0.15018,-5.60032 -0.49474,-7.96223 -1.25342,-8.59187 -0.81645,-0.6776 -2.55063,-0.52565 -7.89429,0.69168 -10.25688,2.3366 -10.87989,1.71451 -8.51825,-8.50554 2.06582,-8.93987 2.08252,-8.92052 -7.92874,-9.18898 -10.17731,-0.27292 -10.30726,-0.46932 -6.22462,-9.40752 4.05243,-8.87208 3.79383,-9.38656 -5.31586,-10.57577 -10.54674,-1.37682 -10.95107,-2.49198 -4.24323,-11.70294 4.64733,-6.38153 4.31628,-7.41125 -3.34017,-10.38955 -10.0588399,-3.91282 -10.2038899,-4.46664 -3.03352,-11.58206 3.26492,-3.23991 5.12541,-5.67345 5.12541,-6.70409 0,-1.24738 -1.42544,-2.47895 -6.22372,-5.37724 -5.4313499,-3.28069 -6.2237099,-4.02011 -6.2237099,-5.80783 0,-1.78324 0.80603,-2.54284 6.2237099,-5.86521 7.89759,-4.84317 7.95074,-5.42739 1.09831,-12.07201 -7.2446099,-7.0249 -7.0869599,-7.57426 3.3524,-11.68141 7.31267,-2.87702 7.64042,-3.99889 3.02129,-10.341717 -4.91193,-6.74488 -5.25055,-7.55625 -3.81538,-9.1421 0.73568,-0.81293 3.12838,-1.65783 6.09902,-2.15367 11.51481,-1.92198 11.45524,-1.83205 7.27545,-10.98293 -4.08264,-8.93821 -3.95269,-9.13461 6.22462,-9.40752 5.60031,-0.15018 7.96222,-0.49475 8.59186,-1.25342 0.6776,-0.81646 0.52566,-2.55064 -0.69167,-7.89429 -2.33798,-10.262904 -1.66959,-10.931844 8.47839,-8.485404 8.91845,2.150034 8.94559,2.126594 9.21612,-7.9616 0.2721,-10.14666 0.45065,-10.26485 9.3697,-6.20226 7.69501,3.50505 9.14151,3.33933 9.92391,-1.13695 1.66916,-9.54971 2.21933,-11.40616 3.66233,-12.35758 1.37733,-0.90814 2.04253,-0.63073 7.32201,3.05348 7.962878,5.55679 8.734468,5.39456 11.797828,-2.48056 3.91282,-10.0588296 4.46664,-10.2038896 11.58206,-3.03352 3.22549,3.25039 5.67526,5.12541 6.69649,5.12541 1.23335,0 2.50388,-1.45703 5.42703,-6.22372 3.28583,-5.35809 4.09466,-6.2237096 5.81543,-6.2237096 1.72076,0 2.52959,0.8656196 5.81542,6.2237096 2.92316,4.76669 4.19368,6.22372 5.42703,6.22372 1.02124,0 3.471,-1.87502 6.69649,-5.12541 7.12982,-7.1848796 7.52955,-7.0696596 11.6299,3.3524 2.89408,7.35603 4.07255,7.69403 10.45198,2.99777 6.42028,-4.72634 7.07574,-5.00534 8.84612,-3.76532 1.07059,0.74987 1.73723,2.46987 2.32778,6.00584 1.93612,11.59273 1.83555,11.52557 10.99455,7.34209 8.9382,-4.08264 9.1346,-3.95269 9.40752,6.22461 0.26846,10.011264 0.24911,9.994574 9.18897,7.92875 10.22005,-2.36164 10.84214,-1.73863 8.50554,8.518254 -1.21733,5.34365 -1.36928,7.07783 -0.69168,7.89429 0.62965,0.75867 2.99155,1.10324 8.59187,1.25342 10.1773,0.27291 10.30725,0.46931 6.22461,9.40752 -4.18348,9.15899 -4.25064,9.05842 7.34209,10.99454 3.53597,0.59055 5.25597,1.25719 6.00584,2.32778 1.23836,1.76802 0.95051,2.44849 -3.78884,8.95638 -4.61914,6.342827 -4.29138,7.464697 3.02129,10.341717 10.42205,4.10035 10.53728,4.50008 3.3524,11.6299 -3.25039,3.22549 -5.12541,5.67525 -5.12541,6.69649 0,1.23335 1.45703,2.50387 6.22372,5.42703 5.35809,3.28583 6.22371,4.09466 6.22371,5.81542 0,1.72077 -0.86562,2.5296 -6.22371,5.81543 -4.76669,2.92315 -6.22372,4.19368 -6.22372,5.42703 0,1.02123 1.87502,3.471 5.12541,6.69649 7.17037,7.11542 7.02532,7.66924 -3.03352,11.58206 -7.65645,2.9783 -7.9875,4.00802 -3.34017,10.38955 4.91193,6.74489 5.25055,7.55626 3.81538,9.14211 -0.73569,0.81292 -3.12838,1.65783 -6.09902,2.15367 -11.51481,1.92198 -11.45523,1.83205 -7.27545,10.98293 4.08264,8.9382 3.95269,9.1346 -6.22461,9.40752 -10.01126,0.26846 -9.99457,0.24911 -7.92875,9.18898 2.36164,10.22005 1.73863,10.84214 -8.51825,8.50554 -5.34365,-1.21733 -7.07784,-1.36928 -7.89429,-0.69168 -0.75867,0.62964 -1.10324,2.99155 -1.25341,8.59187 -0.27059,10.09021 -0.48296,10.23966 -9.05827,6.37411 -3.52352,-1.58833 -6.59785,-2.95909 -6.83184,-3.04613 -0.234,-0.087 -1.01178,0.28588 -1.7284,0.82871 -0.88069,0.66713 -1.66625,3.09132 -2.42398,7.48029 -0.70341,4.07435 -1.61682,6.99802 -2.4519,7.84816 -1.57384,1.6022 -2.32372,1.30024 -9.19184,-3.70144 -6.38154,-4.64733 -7.41125,-4.31629 -10.38956,3.34016 -3.91282,10.05885 -4.46664,10.20389 -11.58206,3.03353 -3.22549,-3.2504 -5.67525,-5.12541 -6.69649,-5.12541 -1.23335,0 -2.50387,1.45703 -5.42703,6.22371 -3.28583,5.35809 -4.09466,6.22372 -5.81542,6.22372 -1.72077,0 -2.5296,-0.86563 -5.81543,-6.22372 z m 16.08546,-28.22096 c 8.16951,-1.00516 17.24591,-3.17267 23.28689,-5.56108 2.68602,-1.06196 4.95466,-1.98404 5.04142,-2.04906 0.0868,-0.065 1.12063,-4.53547 2.29748,-9.93433 1.80787,-8.29374 2.44268,-10.07672 4.09323,-11.49646 2.41679,-2.07883 3.89218,-2.06796 13.77952,0.10155 l 7.88055,1.72918 4.38383,-4.85723 c 2.4111,-2.67148 4.38383,-5.10892 4.38383,-5.41655 0,-0.30762 -9.24211,-0.55932 -20.53801,-0.55932 -22.94223,0 -22.65449,0.0544 -27.37568,-5.17143 -3.80668,-4.21354 -5.0527,-7.41577 -7.66688,-19.70363 -2.6333,-12.37779 -4.57852,-16.23307 -9.61539,-19.05704 -3.11563,-1.74681 -3.90938,-1.84144 -17.35979,-2.06954 l -14.09488,-0.23904 v 9.20851 9.20851 h 11.71522 11.71523 v 13.91183 13.91183 H 98.481142 c -21.34368,0 -38.80669,0.25418 -38.80669,0.56484 0,0.31066 1.8948,2.65717 4.21068,5.21448 l 4.21068,4.64965 8.61941,-1.89515 c 12.69329,-2.79089 13.82121,-1.9974 16.56614,11.65419 0.96588,4.80368 2.05743,9.12215 2.42566,9.59661 0.93112,1.19973 11.548008,4.94468 18.150358,6.40227 11.57081,2.55448 21.21262,3.12263 31.50388,1.85641 z m 49.46276,-7.20696 c 6.25124,-3.812 4.43567,-13.29907 -2.76883,-14.4682 -3.4095,-0.55329 -6.90145,1.31517 -8.42368,4.50731 -1.01136,2.12087 -1.05707,2.96184 -0.29859,5.49345 1.55056,5.17529 6.91209,7.25972 11.4911,4.46744 z M 83.319252,220.38127 c 2.78045,-2.1871 3.77889,-5.83025 2.46176,-8.98258 -0.58136,-1.3914 -1.82412,-3.06711 -2.76168,-3.7238 -2.23382,-1.56463 -7.17376,-1.50877 -9.1643,0.10364 -6.02045,4.87674 -3.04551,14.02114 4.57487,14.06232 1.93192,0.0104 3.68636,-0.5133 4.88935,-1.45958 z M 212.60958,159.80374 c 3.12061,-2.32585 4.45178,-5.38906 4.9613,-11.41665 l 0.47402,-5.60775 h 5.38408 5.38407 v -6.90825 c 0,-3.79954 -0.29794,-7.69189 -0.66208,-8.64967 -0.50086,-1.31735 -2.81164,-2.68885 -9.4892,-5.63206 -13.69739,-6.03727 -13.69808,-6.03939 -6.99652,-21.24826 l 4.92239,-11.171127 -1.31235,-2.30034 c -2.60381,-4.56402 -9.15373,-12.82915 -14.03555,-17.71096 -10.26824,-10.26823 -22.83001,-17.94038 -36.9657,-22.576954 -12.48133,-4.09392 -11.07377,-4.35179 -19.4677,3.566604 -4.01041,3.78322 -8.13574,7.09043 -9.16739,7.34936 -2.77727,0.69705 -4.65568,-0.57741 -11.53075,-7.82339 l -6.22371,-6.559484 -5.85762,1.52334 c -15.797188,4.108234 -28.418598,11.026474 -41.526158,22.761974 -2.73276,2.44669 -4.96865,4.74268 -4.96865,5.10219 0,0.37503 22.08156,0.75385 51.803268,0.88871 57.39144,0.26042 54.39084,0.0172 64.2412,5.20745 13.10484,6.90509 20.14418,21.456597 15.81687,32.696187 -2.6736,6.94432 -6.55012,11.3028 -16.50921,18.56177 -1.38697,1.01093 -1.35091,1.11375 1.0983,3.1315 6.85298,5.64576 9.62261,10.03717 11.76739,18.65786 1.64036,6.59322 2.03621,7.25728 5.409,9.07399 2.99216,1.6117 10.76991,1.082 13.4507,-0.91604 z M 72.121882,131.06411 v -30.02027 h -6.96575 -6.96574 l 1.10813,2.56271 c 0.60947,1.40948 1.61689,3.7401 2.23871,5.17915 2.25929,5.22855 0.2036,7.55583 -10.94736,12.39369 l -8.4384,3.66101 -0.4935,3.24072 c -0.96347,6.32699 1.25124,29.43125 3.10939,32.43781 0.19221,0.311 6.42561,0.56545 13.852,0.56545 h 13.50252 z m 80.334648,-12.99919 c 3.56515,-1.90491 4.60075,-3.47819 4.60075,-6.98948 0,-3.20126 -2.30352,-6.15658 -6.16616,-7.9109 -2.62905,-1.19406 -5.02322,-1.35826 -20.01005,-1.37242 l -17.02369,-0.0161 v 9.20972 9.20971 l 17.75589,-0.24046 c 16.77262,-0.22715 17.92686,-0.33182 20.84326,-1.89009 z m 76.86579,-3.80917 c 5.21878,-3.18209 4.62508,-11.32697 -0.99687,-13.67597 -5.79436,-2.421037 -11.7095,1.90978 -10.96203,8.02596 0.73982,6.05365 6.688,8.86388 11.9589,5.65001 z M 49.330412,113.42096 c 3.75195,-3.49547 3.75734,-8.8155 0.0121,-11.96688 -4.50462,-3.790387 -11.71195,-1.34817 -12.7771,4.32955 -0.59022,3.14615 0.11515,5.307 2.4338,7.45586 2.49277,2.31022 7.94346,2.40596 10.33117,0.18147 z M 140.39969,43.945979 c 2.70204,-2.99731 2.75762,-7.07147 0.13891,-10.18363 -4.70808,-5.59524 -13.50159,-2.54762 -13.50159,4.67934 0,7.58388 8.37718,11.034574 13.36268,5.50429 z"
   id="path2" /><g
   id="g7"
   transform="translate(-74.68458,13.911833)"><path
     style="opacity:1;fill:#fc573b;fill-opacity:1;stroke:#fc573b;stroke-width:0.732202"
     d="m 370.12799,169.1386 v -12.44743 h 4.75931 4.75931 V 120.44719 84.203204 h -4.75931 -4.75931 v -12.44743 -12.44743 h 40.93889 c 43.52676,0 46.73917,0.20975 55.89632,3.64964 8.01404,3.01049 14.1622,9.49286 17.02483,17.95031 0.68154,2.01356 1.41329,6.95592 1.62612,10.98303 0.43071,8.149786 -0.6356,13.840786 -3.74183,19.970646 -1.86196,3.67441 -7.19636,9.11917 -10.33571,10.54955 -2.86309,1.30451 -2.29578,3.09857 1.28268,4.05633 9.00987,2.41148 12.26437,8.70944 12.26437,23.73344 v 6.48988 h 3.66101 3.66101 v 12.44743 12.44743 h -24.85527 -24.85528 l -0.22263,-22.28 c -0.21153,-21.16848 -0.29806,-22.38305 -1.73429,-24.34571 -2.14575,-2.93221 -5.7315,-4.45796 -11.85103,-5.04264 l -5.30846,-0.50719 v 13.64034 13.64034 h 5.12541 5.12541 v 12.44743 12.44743 h -31.85077 -31.85078 z m 67.04633,-58.91589 c 3.53026,-1.47503 4.70944,-4.61055 4.70944,-12.522656 0,-6.87542 -1.07505,-10.24757 -3.81185,-11.95673 -0.89439,-0.55855 -4.49011,-1.17289 -8.05443,-1.37612 l -6.43876,-0.36712 v 13.64729 13.647286 h 5.51503 c 3.18559,0 6.59866,-0.45277 8.08057,-1.07195 z"
     id="path4" /><path
     style="opacity:1;fill:#fc573b;fill-opacity:1;stroke:#fc573b;stroke-width:0.732202"
     d="m 516.59068,182.28979 c -10.08405,-3.62598 -15.62733,-12.44717 -17.57304,-27.9645 -0.41489,-3.30881 -0.75434,-12.53211 -0.75434,-20.49621 v -14.4802 h -3.29491 -3.29491 V 106.90145 94.454024 h 21.23385 21.23385 v 27.076646 c 0,31.4794 0.0906,32.03847 5.52517,34.11397 2.19724,0.83913 4.06303,1.05909 5.96195,0.70285 7.05691,-1.32388 7.55013,-2.75874 7.55013,-21.96495 v -15.03366 h -4.02711 -4.02711 V 106.90145 94.454024 h 21.96605 21.96605 v 31.118576 31.11857 h 3.29491 3.29491 v 12.44743 12.44743 h -21.23385 -21.23385 v -5.12541 c 0,-2.81898 -0.26486,-5.12541 -0.58857,-5.12541 -0.32371,0 -1.72405,1.17164 -3.11186,2.60365 -8.34468,8.61045 -22.30622,12.15564 -32.88732,8.35093 z"
     id="path5" /><path
     style="opacity:1;fill:#fc573b;fill-opacity:1;stroke:#fc573b;stroke-width:0.732202"
     d="m 626.7647,183.34765 c -8.15579,-1.09053 -13.83204,-2.02291 -18.12199,-2.97673 l -4.94236,-1.09887 V 168.6127 157.95335 l 4.57626,0.48111 c 2.51694,0.26461 7.54168,0.79849 11.16608,1.18641 8.89556,0.95208 21.59076,0.91358 24.42391,-0.0741 2.9688,-1.03493 3.8352,-3.84391 1.8102,-5.86892 -1.00705,-1.00705 -3.93674,-1.8469 -10.15053,-2.90983 -19.90245,-3.40451 -29.33898,-8.78962 -34.22861,-19.5331 -1.25381,-2.75486 -1.58218,-4.8952 -1.60089,-10.43453 -0.0217,-6.42469 0.16466,-7.35124 2.38688,-11.86754 3.72049,-7.56132 9.94328,-12.083426 20.65395,-15.009266 3.83893,-1.04868 7.52043,-1.29041 19.03724,-1.25001 13.73223,0.0482 23.0221,1.02984 30.93553,3.26894 l 2.74575,0.77691 v 10.307076 10.30707 l -4.21016,-0.45349 c -2.31559,-0.24943 -10.79997,-0.63991 -18.85419,-0.86774 -16.253,-0.45975 -18.11467,-0.10296 -18.53831,3.5529 -0.31275,2.69883 2.14709,3.66762 13.04679,5.13838 20.31174,2.74078 30.114,9.02502 33.28863,21.34137 1.33626,5.18415 1.41972,9.18436 0.30158,14.45416 -2.23236,10.52118 -8.53003,17.09074 -19.97826,20.84078 -5.36366,1.75695 -7.13549,1.9575 -18.73736,2.12092 -7.04744,0.0993 -13.802,0.0483 -15.01014,-0.11324 z"
     id="path6" /><path
     style="opacity:1;fill:#fc573b;fill-opacity:1;stroke:#fc573b;stroke-width:0.732202"
     d="m 711.19409,182.42005 c -8.94101,-2.33263 -15.20778,-8.17827 -18.55552,-17.30856 -1.155,-3.15004 -1.38292,-6.59905 -1.63305,-24.71181 l -0.2907,-21.0508 h -3.60224 -3.60224 V 106.96581 94.582744 l 3.02809,-0.51159 c 1.91207,-0.32304 4.00347,-1.40526 5.67457,-2.93637 2.6171,-2.39787 2.64931,-2.49852 2.90237,-9.07139 l 0.2559,-6.64661 h 16.40169 16.40169 v 9.51862 9.51862 h 10.98302 10.98303 v 12.447426 12.44743 H 739.09475 728.0488 l 0.24598,15.5934 c 0.21466,13.60876 0.4163,15.85312 1.58427,17.634 2.62439,4.00157 7.61946,4.77847 18.6142,2.89513 l 2.37965,-0.40761 v 12.13445 12.13445 l -3.84406,1.14838 c -11.41952,3.41149 -26.96619,4.2527 -35.83475,1.93897 z"
     id="path7" /></g></svg>
