<?xml version="1.0" encoding="utf-8"?>
<!-- Generator: Adobe Illustrator 24.3.0, SVG Export Plug-In . SVG Version: 6.00 Build 0)  -->
<svg version="1.0" id="katman_1" xmlns="http://www.w3.org/2000/svg" xmlns:xlink="http://www.w3.org/1999/xlink" x="0px" y="0px"
	 viewBox="0 0 841.89 595.28" style="enable-background:new 0 0 841.89 595.28;" xml:space="preserve">
<style type="text/css">
	.st0{fill:#010202;}
</style>
<g>
	<path class="st0" d="M197.01,182.47c-0.99,0.08-1.98,0.18-2.96,0.29l-8.69-9.3c-1.39-1.47-3.71-1.55-5.18-0.16
		c-0.41,0.38-0.72,0.85-0.92,1.37l-4.46,11.91c-0.95,0.28-1.9,0.56-2.84,0.86l-10.35-7.44c-1.64-1.18-3.92-0.81-5.1,0.83
		c-0.33,0.46-0.55,0.99-0.64,1.55l-2.06,12.61c-0.87,0.45-1.74,0.92-2.59,1.39l-11.63-5.3c-0.48-0.22-0.99-0.33-1.51-0.33
		c-2.03,0.01-3.67,1.67-3.66,3.7c0,0.03,0,0.06,0,0.09l0.45,12.81c-0.75,0.6-1.49,1.21-2.22,1.83l-12.49-2.94
		c-1.97-0.46-3.94,0.78-4.4,2.75c-0.13,0.54-0.13,1.11,0,1.65l2.94,12.49c-0.62,0.73-1.23,1.48-1.83,2.22l-12.81-0.45l-0.14,0
		c-2.01,0.01-3.64,1.64-3.65,3.65c0,0.53,0.11,1.04,0.33,1.52l5.3,11.63c-0.47,0.85-0.94,1.72-1.39,2.59l-12.61,2.06
		c-2,0.34-3.35,2.23-3.01,4.23c0.09,0.55,0.31,1.06,0.63,1.51l7.44,10.35c-0.3,0.95-0.59,1.89-0.86,2.84l-11.91,4.46
		c-1.89,0.71-2.85,2.82-2.14,4.72c0.2,0.52,0.51,1,0.92,1.38l9.3,8.69c-0.11,0.98-0.21,1.97-0.29,2.96l-10.82,6.7
		c-1.72,1.06-2.25,3.32-1.18,5.04c0.3,0.48,0.7,0.89,1.18,1.18l10.83,6.7c0.08,0.99,0.18,1.98,0.29,2.96l-9.3,8.69
		c-1.48,1.37-1.56,3.68-0.19,5.16c0.39,0.42,0.87,0.74,1.41,0.94l11.91,4.46c0.28,0.95,0.56,1.9,0.86,2.84l-7.44,10.35
		c-1.18,1.63-0.82,3.92,0.82,5.1c0.46,0.33,1,0.56,1.56,0.65l12.61,2.06c0.45,0.87,0.92,1.73,1.39,2.58l-5.3,11.64
		c-0.84,1.84-0.03,4.01,1.81,4.84c0.48,0.22,1,0.33,1.52,0.33h0.13l12.82-0.45c0.6,0.75,1.21,1.49,1.82,2.22l-2.94,12.49
		c-0.46,1.97,0.78,3.94,2.75,4.4c0.54,0.13,1.11,0.13,1.65,0l12.5-2.94c0.73,0.62,1.47,1.22,2.21,1.82l-0.45,12.82l0,0.14
		c0.01,2.01,1.64,3.64,3.65,3.65c0.53,0,1.05-0.11,1.52-0.33l11.64-5.3c0.86,0.48,1.72,0.94,2.59,1.39l2.06,12.61
		c0.33,2,2.22,3.35,4.22,3.01c0.55-0.09,1.07-0.31,1.53-0.63l10.35-7.44c0.94,0.3,1.89,0.59,2.84,0.86l4.46,11.91
		c0.71,1.89,2.82,2.85,4.71,2.14c0.53-0.2,1-0.51,1.39-0.93l8.69-9.3c0.98,0.11,1.97,0.21,2.96,0.29l6.7,10.82
		c1.06,1.72,3.31,2.25,5.03,1.19c0.48-0.3,0.89-0.71,1.19-1.19l6.7-10.82c0.99-0.08,1.98-0.18,2.96-0.29l8.69,9.3
		c0.86,0.92,2.14,1.34,3.39,1.09c1.24-0.25,2.27-1.12,2.71-2.3l4.46-11.91c0.95-0.28,1.9-0.56,2.84-0.86l10.35,7.44
		c1.64,1.18,3.93,0.8,5.11-0.85c0.33-0.46,0.54-0.98,0.64-1.54l2.06-12.61c0.87-0.45,1.73-0.92,2.58-1.39l11.64,5.3
		c0.48,0.22,1,0.33,1.52,0.33c2,0,3.65-1.65,3.65-3.65l0-0.13l-0.45-12.82c0.75-0.6,1.49-1.2,2.22-1.82l12.49,2.94
		c1.97,0.46,3.94-0.78,4.4-2.75c0.13-0.54,0.13-1.11,0-1.65l-2.94-12.49c0.62-0.73,1.22-1.47,1.82-2.22l12.82,0.45l0.13,0
		c2.01,0,3.66-1.65,3.66-3.66c0-0.53-0.11-1.04-0.33-1.52l-5.3-11.64c0.48-0.85,0.94-1.72,1.39-2.58l12.61-2.06
		c2-0.33,3.35-2.21,3.02-4.21c-0.09-0.55-0.31-1.08-0.64-1.54l-7.44-10.35c0.3-0.94,0.59-1.89,0.86-2.84l11.91-4.46
		c1.89-0.7,2.85-2.8,2.15-4.69c-0.2-0.54-0.52-1.02-0.94-1.41l-9.3-8.69c0.11-0.99,0.21-1.97,0.29-2.96l10.82-6.7
		c1.72-1.07,2.25-3.32,1.18-5.04c-0.3-0.48-0.7-0.88-1.18-1.18l-10.82-6.7c-0.08-0.99-0.18-1.98-0.29-2.96l9.3-8.69
		c1.48-1.38,1.55-3.7,0.17-5.18c-0.38-0.41-0.85-0.72-1.38-0.92l-11.91-4.46c-0.28-0.95-0.56-1.9-0.86-2.84l7.44-10.35
		c1.18-1.64,0.8-3.93-0.84-5.11c-0.46-0.33-0.99-0.55-1.54-0.64l-12.61-2.06c-0.45-0.87-0.92-1.73-1.39-2.59l5.3-11.64
		c0.22-0.48,0.33-1,0.33-1.52c0-2.01-1.65-3.65-3.65-3.65l-0.13,0l-12.82,0.45c-0.6-0.75-1.2-1.48-1.82-2.21l2.94-12.5
		c0.45-1.98-0.78-3.94-2.76-4.4c-0.54-0.12-1.1-0.12-1.64,0L281,209.18c-0.73-0.62-1.47-1.22-2.22-1.82l0.45-12.82l0-0.13
		c0-2.01-1.65-3.66-3.66-3.66c-0.52,0-1.04,0.11-1.52,0.33l-11.64,5.3c-0.86-0.47-1.72-0.94-2.58-1.39l-2.06-12.61
		c-0.33-1.99-2.21-3.35-4.2-3.02c-0.56,0.09-1.08,0.31-1.54,0.64l-10.35,7.44c-0.94-0.3-1.89-0.59-2.84-0.86l-4.46-11.91
		c-0.7-1.89-2.8-2.85-4.69-2.15c-0.53,0.2-1.01,0.52-1.4,0.93l-8.69,9.3c-0.99-0.11-1.97-0.21-2.96-0.29l-6.7-10.83
		c-1.06-1.72-3.31-2.25-5.03-1.19c-0.48,0.3-0.89,0.71-1.19,1.19C203.71,171.64,197.01,182.47,197.01,182.47z M185.68,305.91h24.12
		c2.19,0,11.78,0.63,14.82,12.87c0.95,3.75,3.07,15.99,4.51,19.92c1.44,4.39,7.27,13.17,13.48,13.17h39.35
		c-2.64,3.53-5.52,6.87-8.63,10l-16.02-3.44c-3.73-0.78-7.4,1.59-8.22,5.31l-3.8,17.75c-24.75,11.2-53.16,11.06-77.8-0.37
		l-3.8-17.75c-0.8-3.72-4.47-6.1-8.19-5.31l-15.68,3.36c-2.91-3-5.61-6.19-8.1-9.56h76.24c0.85,0,1.44-0.15,1.44-0.95v-26.96
		c0-0.78-0.59-0.95-1.44-0.95h-22.31C185.66,323,185.68,305.91,185.68,305.91z M262.78,368.01c4.09,0.15,7.33,3.49,7.36,7.58
		c0,4.16-3.42,7.58-7.58,7.58c-4.17-0.04-7.54-3.41-7.58-7.58v0c0.04-4.17,3.41-7.55,7.58-7.58
		C262.56,368.01,262.78,368.01,262.78,368.01z M150.5,367.67c4.09,0.15,7.33,3.49,7.36,7.58c-0.04,4.17-3.41,7.54-7.58,7.58
		c-4.17-0.04-7.54-3.41-7.58-7.58v0c0.04-4.17,3.41-7.55,7.58-7.58C150.28,367.67,150.5,367.67,150.5,367.67z M741.26,244.45h-33.59
		v7.13c0,6.81-3.64,11.57-12.04,11.57v25.98h6.97v28.67c0,26.93,12.36,35.65,33.74,35.65c15.37,0,27.25-4.75,27.25-4.75v-24.87
		c0,0-7.29,1.43-13.15,1.43c-6.02,0-9.19-3.01-9.19-10.14v-25.98h21.39v-25.98h-21.39L741.26,244.45L741.26,244.45z M615.94,348.54
		c0,0,14.1,4.91,38.18,4.91c27.41,0,39.93-11.57,39.93-30.42c0-18.38-11.41-27.25-35.81-29.78c-9.82-0.95-12.04-2.06-12.04-4.59
		c0-2.53,3.64-3.8,12.2-3.8c12.99,0,30.1,2.22,30.1,2.22v-21.39c0,0-12.51-4.75-36.75-4.75c-28.83,0-40.4,12.51-40.4,28.99
		c0,17.74,13.31,27.09,35.33,30.1c9.98,1.43,12.2,2.38,12.2,5.23c0,2.53-2.06,4.12-11.41,4.12c-11.72,0-31.53-2.85-31.53-2.85
		V348.54z M547.03,263.15h-43.41v25.98h6.97v25.98c0,26.46,10.77,38.34,28.04,38.34c14.26,0,21.7-7.92,26.77-12.99v10.77h43.41
		v-25.98h-6.97v-62.1h-44.99v25.98h8.55v25.98c0,7.13-3.17,10.14-9.19,10.14c-6.02,0-9.19-3.01-9.19-10.14L547.03,263.15
		L547.03,263.15z M436.29,299.27c13.15,0,18.54,2.06,18.54,14.73v37.23h50.22v-25.98h-7.44v-12.2c0-11.09-5.07-17.11-15.21-18.69
		l-0.16-1.58c10.77-4.12,16.48-15.21,16.48-29.15c0-26.14-16-35.65-41.98-35.65h-74.3v25.98h9.5v71.29h-9.5v25.98h64.32v-25.98
		h-10.46C436.29,325.25,436.29,299.27,436.29,299.27z M224.01,204.78c26.94,5.06,50.29,21.69,63.88,45.5l-8.95,20.19
		c-1.51,3.5,0.05,7.56,3.51,9.14l17.21,7.63c0.53,5.38,0.6,10.8,0.19,16.19h-9.58c-0.95,0-1.34,0.63-1.34,1.56v4.39
		c0,10.34-5.83,12.61-10.95,13.17c-4.88,0.56-10.27-2.05-10.95-5.02c-2.88-16.17-7.66-19.61-15.22-25.58
		c9.39-5.95,19.14-14.75,19.14-26.5c0-12.7-8.7-20.7-14.63-24.62c-8.34-5.49-17.56-6.58-20.04-6.58h-98.99
		c13.69-15.29,32.04-25.64,52.2-29.45l11.68,12.24c2.62,2.75,6.97,2.86,9.72,0.25c0.01-0.01,0.02-0.02,0.03-0.03
		C210.94,217.24,224.01,204.78,224.01,204.78z M130.53,262.46h13.22v59.59h-26.67c-3.29-11.57-4.32-23.66-3.02-35.62l16.34-7.27
		c3.48-1.55,5.05-5.63,3.51-9.12C133.9,270.05,130.53,262.46,130.53,262.46z M185.68,263.1h31.48c1.63,0,11.49,1.88,11.49,9.26
		c0,6.12-7.56,8.31-13.78,8.31h-29.21L185.68,263.1z M436.29,279.94v-25.98h8.55c6.02,0,9.19,3.01,9.19,10.14v5.7
		c0,7.13-3.17,10.14-9.19,10.14H436.29z M297.03,261.25c4.09,0.15,7.33,3.49,7.36,7.58c-0.04,4.17-3.41,7.54-7.58,7.58
		c-4.17-0.04-7.54-3.41-7.58-7.58v0c0.04-4.18,3.43-7.56,7.62-7.58L297.03,261.25z M116.24,260.9c4.09,0.15,7.33,3.49,7.36,7.58
		c-0.04,4.17-3.41,7.54-7.58,7.58c-4.17-0.04-7.54-3.41-7.58-7.58v0c0.04-4.17,3.41-7.55,7.58-7.58L116.24,260.9z M206.65,192.29
		c4.09,0.15,7.34,3.49,7.36,7.58c0,4.16-3.42,7.58-7.58,7.58c-4.17-0.04-7.54-3.41-7.58-7.58v-0.01c0-4.16,3.42-7.58,7.58-7.58
		C206.43,192.29,206.65,192.29,206.65,192.29z"/>
</g>
</svg>
